<?xml version="1.0" ?><svg height="24px" version="1.1" viewBox="0 0 24 24" width="24px" xmlns="http://www.w3.org/2000/svg" xmlns:xlink="http://www.w3.org/1999/xlink"><title/><desc/><g fill="none" fillRule="evenodd" id="checkmark" stroke="none" strokeWidth="1"><path d="M12.939582,3 C13.4918667,3 13.939582,3.44771525 13.939582,4 C13.939582,4.55228475 13.4918667,5 12.939582,5 L5.7778,5 C5.34888475,5 5,5.34888475 5,5.7778 L5,18.2222 C5,18.6511153 5.34888475,19 5.7778,19 L18.2222,19 C18.6511153,19 19,18.6511153 19,18.2222 L19,12.0438338 C19,11.491549 19.4477153,11.0438338 20,11.0438338 C20.5522847,11.0438338 21,11.491549 21,12.0438338 L21,18.2222 C21,19.7556847 19.7556847,21 18.2222,21 L5.7778,21 C4.24431525,21 3,19.7556847 3,18.2222 L3,5.7778 C3,4.24431525 4.24431525,3 5.7778,3 L12.939582,3 Z M18.1595864,4.45805441 C18.4588947,3.99390681 19.077798,3.86027814 19.5419456,4.15958643 C20.0060932,4.45889471 20.1397219,5.077798 19.8404136,5.54194559 L13.2845508,15.7083462 C12.8355884,16.4045676 11.9072335,16.6050106 11.2110121,16.1560482 C11.080209,16.0716991 10.9633305,15.9675062 10.8645727,15.8472102 L8.22709485,12.6345216 C7.87665826,12.2076578 7.9386147,11.5775314 8.36547843,11.2270948 C8.79234216,10.8766583 9.42246857,10.9386147 9.77290515,11.3654784 L11.9753154,14.048215 L18.1595864,4.45805441 Z" fill="#33f425" fillRule="nonzero"/></g></svg>