<?xml version="1.0" encoding="UTF-8"?>
<svg version="1.1" viewBox="0 0 24 24" xmlns="http://www.w3.org/2000/svg">
<g fill="none" fill-rule="evenodd">
<path d="m9.1439 3.5967c0.56364 0 1.0206 0.45775 1.0206 1.0224s-0.45692 1.0224-1.0206 1.0224h-4.309c-0.43773 0-0.79379 0.3567-0.79379 0.79523v12.723c0 0.43853 0.35606 0.79523 0.79379 0.79523h12.7c0.43773 0 0.79379-0.3567 0.79379-0.79523v-4.3168c0-0.56466 0.45692-1.0224 1.0206-1.0224s1.0206 0.45775 1.0206 1.0224v4.3168c0 1.5678-1.2699 2.84-2.8349 2.84h-12.7c-1.565 0-2.8349-1.2722-2.8349-2.84v-12.723c0-1.5678 1.2699-2.84 2.8349-2.84h4.309zm4.7057 2.9539c-0.39856-0.39927-0.39857-1.0466-2.55e-5 -1.4459 0.39854-0.39928 1.0447-0.39929 1.4433-2.556e-5l2.8866 2.8918c0.39856 0.39927 0.39857 1.0466 2.55e-5 1.4459-0.39854 0.39928-1.0447 0.39929-1.4433 2.556e-5l-2.8866-2.8918zm7.6226 1.039-8.1155 8.1303c-0.17655 0.17687-0.41168 0.28276-0.66092 0.29764l-3.8369 0.22912c-0.61062 0.036463-1.1159-0.46971-1.0795-1.0814l0.22871-3.8438c0.014856-0.24968 0.12056-0.48525 0.2971-0.66212l8.1154-8.1302c0.82431-0.82603 2.163-0.63416 3.0217 0.22606l1.8041 1.8074c0.8586 0.86016 1.0501 2.2012 0.22575 3.0271zm-1.4433-1.4459c-0.077869 0.078011-0.088717 0.0020278-0.22575-0.13525l-1.8041-1.8074c-0.13706-0.13731-0.21283-0.14817-0.13501-0.22616l-7.8415 7.8557-0.13722 2.3063 2.3021-0.13747 7.8415-7.8557z" fill="#ffd34e" fill-rule="nonzero"/>
</g>
</svg>
