<?xml version="1.0" encoding="UTF-8"?>
<svg version="1.1" viewBox="0 0 24 24" xmlns="http://www.w3.org/2000/svg">
<g fill="none" fill-rule="evenodd">
<path d="m9 5h6v-1h-6v1zm8 0h4c0.55228 0 1 0.44772 1 1s-0.44772 1-1 1h-18c-0.55228 0-1-0.44772-1-1s0.44772-1 1-1h4v-2c0-0.55228 0.44772-1 1-1h8c0.55228 0 1 0.44772 1 1v2zm1.0035 3.917c0.045865-0.55038 0.52921-0.95937 1.0796-0.9135s0.95936 0.52921 0.9135 1.0796l-1 12c-0.043191 0.51829-0.47646 0.91695-0.99655 0.91695h-12c-0.52009 0-0.95335-0.39866-0.99655-0.91695l-1-12c-0.045865-0.55038 0.36312-1.0337 0.9135-1.0796s1.0337 0.36312 1.0796 0.9135l0.92359 11.083h10.16l0.92359-11.083zm-8.0035 1.083c0.55228 0 1 0.44772 1 1v6c0 0.55228-0.44772 1-1 1-0.55228 0-1-0.44772-1-1v-6c0-0.55228 0.44772-1 1-1zm4 0c0.55228 0 1 0.44772 1 1v6c0 0.55228-0.44772 1-1 1s-1-0.44772-1-1v-6c0-0.55228 0.44772-1 1-1z" fill="#c70000" fill-rule="nonzero"/>
</g>
</svg>
