<?xml version="1.0" encoding="UTF-8"?>
<svg version="1.1" viewBox="0 0 24 24" xmlns="http://www.w3.org/2000/svg">
<g fill="none" fillRule="evenodd">
<path d="m20.594 7.0862c0.50468-0.2243 1.0956 0.0029889 1.32 0.50767 0.2243 0.50468-0.0029889 1.0956-0.50767 1.32l-9 4c-0.25857 0.11492-0.55371 0.11492-0.81228 0l-9-4c-0.50468-0.2243-0.73198-0.81527-0.50767-1.32 0.2243-0.50468 0.81527-0.73198 1.32-0.50767l8.5939 3.8195 8.5939-3.8195zm1.4061-0.086188v10c0 1.6561-1.3439 3-3 3h-14c-1.6561 0-3-1.3439-3-3v-10c0-1.6561 1.3439-3 3-3h14c1.6561 0 3 1.3439 3 3zm-2 0c0-0.55152-0.44848-1-1-1h-14c-0.55152 0-1 0.44848-1 1v10c0 0.55152 0.44848 1 1 1h14c0.55152 0 1-0.44848 1-1v-10z" fill="#eee" fillRule="nonzero"/>
</g>
</svg>
