<?xml version="1.0" encoding="UTF-8"?>
<svg version="1.1" viewBox="0 0 24 24" xmlns="http://www.w3.org/2000/svg">
<g fill="#eee" fill-rule="evenodd">
<g fill="#eee">
<path d="m12 10.586 5.2426-5.2426c0.39052-0.39052 1.0237-0.39052 1.4142 0 0.39052 0.39052 0.39052 1.0237 0 1.4142l-5.2426 5.2426 5.2426 5.2426c0.39052 0.39052 0.39052 1.0237 0 1.4142-0.39052 0.39052-1.0237 0.39052-1.4142 0l-5.2426-5.2426-5.2426 5.2426c-0.39052 0.39052-1.0237 0.39052-1.4142 0-0.39052-0.39052-0.39052-1.0237 0-1.4142l5.2426-5.2426-5.2426-5.2426c-0.39052-0.39052-0.39052-1.0237 0-1.4142s1.0237-0.39052 1.4142 0l5.2426 5.2426z" fill="#eee"/>
</g>
</g>
</svg>